<?xml version="1.0" encoding="UTF-8" standalone="no"?>
<svg
   xmlns:osb="http://www.openswatchbook.org/uri/2009/osb"
   xmlns:dc="http://purl.org/dc/elements/1.1/"
   xmlns:cc="http://creativecommons.org/ns#"
   xmlns:rdf="http://www.w3.org/1999/02/22-rdf-syntax-ns#"
   xmlns:svg="http://www.w3.org/2000/svg"
   xmlns="http://www.w3.org/2000/svg"
   xmlns:xlink="http://www.w3.org/1999/xlink"
   xmlns:sodipodi="http://sodipodi.sourceforge.net/DTD/sodipodi-0.dtd"
   xmlns:inkscape="http://www.inkscape.org/namespaces/inkscape"
   sodipodi:docname="logo.svg"
   inkscape:version="1.0beta2 (2b71d25, 2019-12-03)"
   inkscape:export-ydpi="64"
   inkscape:export-xdpi="64"
   inkscape:export-filename="/Users/bod/gitrepo/bbt/icons/32x32.png"
   id="svg8"
   version="1.1"
   viewBox="0 0 12.7 12.7"
   height="48"
   width="48">
  <defs
     id="defs2">
    <linearGradient
       osb:paint="solid"
       id="linearGradient877">
      <stop
         id="stop875"
         offset="0"
         style="stop-color:#ffffff;stop-opacity:1;" />
    </linearGradient>
    <linearGradient
       osb:paint="solid"
       id="linearGradient871">
      <stop
         id="stop869"
         offset="0"
         style="stop-color:#ffffff;stop-opacity:1;" />
    </linearGradient>
    <linearGradient
       osb:paint="solid"
       id="linearGradient865">
      <stop
         id="stop863"
         offset="0"
         style="stop-color:#ffffff;stop-opacity:1;" />
    </linearGradient>
    <linearGradient
       gradientUnits="userSpaceOnUse"
       y2="8.96857"
       x2="3.5214296"
       y1="8.96857"
       x1="-1.5996885"
       id="linearGradient873"
       xlink:href="#linearGradient871"
       inkscape:collect="always" />
  </defs>
  <sodipodi:namedview
     inkscape:window-maximized="0"
     inkscape:window-y="23"
     inkscape:window-x="0"
     inkscape:window-height="855"
     inkscape:window-width="1440"
     inkscape:pagecheckerboard="true"
     inkscape:guide-bbox="true"
     showguides="true"
     units="px"
     showgrid="false"
     inkscape:document-rotation="0"
     inkscape:current-layer="layer1"
     inkscape:document-units="mm"
     inkscape:cy="18.936899"
     inkscape:cx="20.202424"
     inkscape:zoom="7.6612663"
     inkscape:pageshadow="2"
     inkscape:pageopacity="0"
     borderopacity="1.0"
     bordercolor="#666666"
     pagecolor="#ffffff"
     id="base" />
  <metadata
     id="metadata5">
    <rdf:RDF>
      <cc:Work
         rdf:about="">
        <dc:format>image/svg+xml</dc:format>
        <dc:type
           rdf:resource="http://purl.org/dc/dcmitype/StillImage" />
        <dc:title></dc:title>
      </cc:Work>
    </rdf:RDF>
  </metadata>
  <g
     id="layer1"
     inkscape:groupmode="layer"
     inkscape:label="Layer 1">
    <rect
       ry="1.2095237"
       rx="1.2095237"
       y="0"
       x="0"
       height="12.7"
       width="12.7"
       id="rect1064"
       style="fill:#bb00dd;fill-opacity:1;stroke-width:0.0755952;stroke-miterlimit:4;stroke-dasharray:none" />
    <g
       style="fill:#ffffff;stroke:#000000;stroke-width:0.273398;stroke-miterlimit:4;stroke-dasharray:none;stroke-opacity:1"
       transform="matrix(1.2745562,0,0,1.0693279,-0.56307955,1.122965)"
       id="g1062">
      <g
         aria-label="B"
         transform="matrix(0.68280651,-0.29377234,0.20984917,0.95587542,2.3328917,-0.27960368)"
         id="text985"
         style="font-weight:bold;font-size:10.5833px;line-height:1.25;font-family:'Roboto Condensed';-inkscape-font-specification:'Roboto Condensed, Bold';fill:#ffffff;stroke:#000000;stroke-width:0.32348;stroke-miterlimit:4;stroke-dasharray:none;stroke-opacity:1">
        <path
           d="M -3.0773595,10.202652 V 2.6785874 h 2.32543209 q 1.17821891,0 1.78799891,0.5270979 0.6149475,0.5219303 0.6149475,1.5347852 0,0.5736065 -0.2532137,0.9870167 Q 1.1445916,6.1408973 0.70534334,6.3320995 1.2117708,6.4767931 1.485655,6.9160413 1.7595392,7.350122 1.7595392,7.9909077 q 0,1.0955369 -0.6046123,1.6536406 -0.59944473,0.5581037 -1.74149025,0.5581037 z M -1.5580772,6.9315442 V 8.941751 h 0.97151385 q 0.40824252,0 0.62011521,-0.2532137 0.2118727,-0.2532137 0.2118727,-0.7183001 0,-1.0128548 -0.733803,-1.038693 z m 0,-1.1058721 h 0.79064691 q 0.89399944,0 0.89399944,-0.9250052 0,-0.511595 -0.20670508,-0.733803 Q -0.286841,3.944656 -0.75192741,3.944656 H -1.5580772 Z"
           style="fill:#ffffff;stroke:#000000;stroke-width:0.32348;stroke-miterlimit:4;stroke-dasharray:none;stroke-opacity:1"
           id="path1031"
           inkscape:connector-curvature="0" />
      </g>
      <g
         aria-label="B"
         transform="matrix(0.68280651,-0.29377232,0.20984916,0.95587542,1.7813809,-0.279604)"
         id="text985-5"
         style="font-weight:bold;font-size:10.5833px;line-height:1.25;font-family:'Roboto Condensed';-inkscape-font-specification:'Roboto Condensed, Bold';fill:#ffffff;stroke:#000000;stroke-width:0.32348;stroke-miterlimit:4;stroke-dasharray:none;stroke-opacity:1">
        <path
           d="M 2.5071531,11.918959 V 4.3948941 h 2.3254321 q 1.1782189,0 1.7879988,0.5270979 0.6149476,0.5219303 0.6149476,1.5347852 0,0.5736065 -0.2532137,0.9870167 -0.2532137,0.4134101 -0.692462,0.6046123 0.5064275,0.1446936 0.7803117,0.5839418 0.2738842,0.4340807 0.2738842,1.0748664 0,1.0955366 -0.6046123,1.6536406 -0.5994447,0.558104 -1.7414903,0.558104 z M 4.0264354,8.6478509 v 2.0102071 h 0.9715138 q 0.4082426,0 0.6201153,-0.253214 0.2118727,-0.253214 0.2118727,-0.7183001 0,-1.0128549 -0.733803,-1.038693 z m 0,-1.1058721 h 0.7906469 q 0.8939994,0 0.8939994,-0.9250052 0,-0.5115951 -0.206705,-0.733803 Q 5.2976716,5.6609626 4.8325852,5.6609626 H 4.0264354 Z"
           style="fill:#ffffff;stroke:#000000;stroke-width:0.32348;stroke-miterlimit:4;stroke-dasharray:none;stroke-opacity:1"
           id="path1034"
           inkscape:connector-curvature="0" />
      </g>
      <g
         aria-label="T"
         transform="matrix(0.68280651,-0.29377232,0.20984916,0.95587542,-0.49351819,-2.5886855)"
         id="text985-1"
         style="font-weight:bold;font-size:10.5833px;line-height:1.25;font-family:'Roboto Condensed';-inkscape-font-specification:'Roboto Condensed, Bold';fill:#ffffff;stroke:#000000;stroke-width:0.32348;stroke-miterlimit:4;stroke-dasharray:none;stroke-opacity:1">
        <path
           d="M 13.117183,7.3772693 H 11.256837 V 13.635265 H 9.7323876 V 7.3772693 H 7.9030477 V 6.1112008 h 5.2141353 z"
           style="fill:#ffffff;stroke:#000000;stroke-width:0.32348;stroke-miterlimit:4;stroke-dasharray:none;stroke-opacity:1"
           id="path1037"
           inkscape:connector-curvature="0" />
      </g>
    </g>
  </g>
</svg>
